<mxfile host="app.diagrams.net" modified="2020-09-04T08:26:04.834Z" agent="5.0 (Windows NT 10.0; Win64; x64) AppleWebKit/537.36 (KHTML, like Gecko) Chrome/84.0.4147.125 Safari/537.36" etag="mKjn43-bb2rOfQcegOAJ" version="13.6.6" type="github">
  <diagram id="c_JCgNXexYPoM4LpS8Eo" name="第 1 页">
    <mxGraphModel dx="1914" dy="625" grid="1" gridSize="10" guides="1" tooltips="1" connect="1" arrows="1" fold="1" page="1" pageScale="1" pageWidth="827" pageHeight="1169" math="0" shadow="0">
      <root>
        <mxCell id="0" />
        <mxCell id="1" parent="0" />
        <mxCell id="u3seU803yVK-uztfTwNS-35" style="edgeStyle=orthogonalEdgeStyle;rounded=0;orthogonalLoop=1;jettySize=auto;html=1;entryX=0.75;entryY=1;entryDx=0;entryDy=0;" edge="1" parent="1" source="u3seU803yVK-uztfTwNS-1" target="u3seU803yVK-uztfTwNS-9">
          <mxGeometry relative="1" as="geometry" />
        </mxCell>
        <mxCell id="u3seU803yVK-uztfTwNS-37" style="edgeStyle=orthogonalEdgeStyle;rounded=0;orthogonalLoop=1;jettySize=auto;html=1;entryX=1;entryY=0.5;entryDx=0;entryDy=0;" edge="1" parent="1" source="u3seU803yVK-uztfTwNS-1" target="u3seU803yVK-uztfTwNS-2">
          <mxGeometry relative="1" as="geometry" />
        </mxCell>
        <mxCell id="u3seU803yVK-uztfTwNS-1" value="通知（Advice）&lt;br&gt;对应的定义好的一些公共内容方法体&lt;br&gt;日志、事物等...." style="rounded=1;whiteSpace=wrap;html=1;" vertex="1" parent="1">
          <mxGeometry x="270" y="180" width="241" height="60" as="geometry" />
        </mxCell>
        <mxCell id="u3seU803yVK-uztfTwNS-2" value="顾问、增强器（Advisor）&lt;br&gt;包装了（切入点和通知）" style="rounded=1;whiteSpace=wrap;html=1;" vertex="1" parent="1">
          <mxGeometry x="150" y="300" width="170" height="60" as="geometry" />
        </mxCell>
        <mxCell id="u3seU803yVK-uztfTwNS-3" value="连接点（JoinPoint）&lt;br&gt;spring允许你使用通知的地方都可以称为（连接点）&lt;br&gt;异常连接点、前置连接点、后置连接点...." style="rounded=1;whiteSpace=wrap;html=1;" vertex="1" parent="1">
          <mxGeometry x="-440" y="360" width="330" height="60" as="geometry" />
        </mxCell>
        <mxCell id="u3seU803yVK-uztfTwNS-34" style="edgeStyle=orthogonalEdgeStyle;rounded=0;orthogonalLoop=1;jettySize=auto;html=1;entryX=0.25;entryY=1;entryDx=0;entryDy=0;" edge="1" parent="1" source="u3seU803yVK-uztfTwNS-8" target="u3seU803yVK-uztfTwNS-9">
          <mxGeometry relative="1" as="geometry" />
        </mxCell>
        <mxCell id="u3seU803yVK-uztfTwNS-36" style="edgeStyle=orthogonalEdgeStyle;rounded=0;orthogonalLoop=1;jettySize=auto;html=1;entryX=0;entryY=0.5;entryDx=0;entryDy=0;" edge="1" parent="1" source="u3seU803yVK-uztfTwNS-8" target="u3seU803yVK-uztfTwNS-2">
          <mxGeometry relative="1" as="geometry" />
        </mxCell>
        <mxCell id="u3seU803yVK-uztfTwNS-8" value="切入点（Pointcut）" style="rounded=1;whiteSpace=wrap;html=1;" vertex="1" parent="1">
          <mxGeometry x="-40" y="180" width="240" height="60" as="geometry" />
        </mxCell>
        <mxCell id="u3seU803yVK-uztfTwNS-9" value="切面（Aspect）&lt;br&gt;定义了N个通知和切入点" style="rounded=1;whiteSpace=wrap;html=1;" vertex="1" parent="1">
          <mxGeometry x="70" y="30" width="330" height="60" as="geometry" />
        </mxCell>
        <mxCell id="u3seU803yVK-uztfTwNS-15" value="目标（target）&lt;br&gt;要被增强的对象" style="rounded=1;whiteSpace=wrap;html=1;" vertex="1" parent="1">
          <mxGeometry x="570" y="510" width="330" height="60" as="geometry" />
        </mxCell>
        <mxCell id="u3seU803yVK-uztfTwNS-17" value="代理(proxy)&lt;br&gt;已经增强后的对象" style="rounded=1;whiteSpace=wrap;html=1;" vertex="1" parent="1">
          <mxGeometry x="600" y="660" width="330" height="60" as="geometry" />
        </mxCell>
        <mxCell id="u3seU803yVK-uztfTwNS-24" style="edgeStyle=orthogonalEdgeStyle;rounded=0;orthogonalLoop=1;jettySize=auto;html=1;exitX=1;exitY=0.75;exitDx=0;exitDy=0;entryX=0;entryY=0.5;entryDx=0;entryDy=0;" edge="1" parent="1" source="u3seU803yVK-uztfTwNS-19" target="u3seU803yVK-uztfTwNS-17">
          <mxGeometry relative="1" as="geometry" />
        </mxCell>
        <mxCell id="u3seU803yVK-uztfTwNS-31" style="edgeStyle=orthogonalEdgeStyle;rounded=0;orthogonalLoop=1;jettySize=auto;html=1;exitX=1;exitY=0.25;exitDx=0;exitDy=0;entryX=0;entryY=0.5;entryDx=0;entryDy=0;" edge="1" parent="1" source="u3seU803yVK-uztfTwNS-19" target="u3seU803yVK-uztfTwNS-15">
          <mxGeometry relative="1" as="geometry" />
        </mxCell>
        <mxCell id="u3seU803yVK-uztfTwNS-19" value="织入(weaving)" style="rounded=1;whiteSpace=wrap;html=1;" vertex="1" parent="1">
          <mxGeometry x="90" y="600" width="330" height="60" as="geometry" />
        </mxCell>
      </root>
    </mxGraphModel>
  </diagram>
</mxfile>
